<svg xmlns="http://www.w3.org/2000/svg" width="2400" height="800" viewBox="0 0 2400 800" role="img" aria-labelledby="title desc">
  <title id="title">Tournament-style hero text</title>
  <desc id="desc">Make decisions, Settle debates, Build brackets arranged as a mini tournament bracket with Build brackets receiving a bye.</desc>
  <defs>
    <filter id="shadow" x="-20%" y="-20%" width="140%" height="140%">
      <feDropShadow dx="0" dy="8" stdDeviation="8" flood-color="#000000" flood-opacity="0.16"/>
    </filter>
  </defs>
  <g fill="#F7F3EC" filter="url(#shadow)">
    <path d="M 80.00 195.00 L 110.88 195.00 L 110.88 151.41 C 110.88 143.08 110.13 124.38 109.81 108.35 C 113.52 124.91 118.14 142.54 120.88 151.41 L 134.20 195.00 L 159.63 195.00 L 172.71 151.41 C 175.52 142.25 180.29 123.63 183.92 106.46 C 183.61 122.88 182.78 142.78 182.78 151.41 L 182.78 195.00 L 213.66 195.00 L 213.66 82.24 L 165.30 82.24 L 155.30 117.50 C 152.97 125.76 149.56 143.08 146.92 157.85 C 144.32 143.08 140.76 125.76 138.44 117.50 L 128.29 82.24 L 80.00 82.24 L 80.00 195.00 Z M 252.26 196.36 C 263.23 196.36 271.49 192.58 276.63 183.04 L 277.23 183.04 L 277.23 195.00 L 305.69 195.00 L 305.69 137.02 C 305.69 121.42 290.26 109.31 266.19 109.31 C 242.43 109.31 229.47 120.91 227.12 135.06 L 254.54 137.77 C 255.51 132.64 259.99 130.21 265.73 130.21 C 271.56 130.21 275.27 132.71 275.27 137.02 L 275.27 137.34 C 275.27 142.25 269.89 143.75 255.75 144.75 C 238.26 146.03 224.70 153.15 224.70 171.68 C 224.70 188.49 235.99 196.36 252.26 196.36 Z M 262.09 177.13 C 256.96 177.13 253.33 174.63 253.33 169.86 C 253.33 165.55 256.35 162.23 263.45 161.09 C 268.22 160.34 272.32 159.35 275.56 158.07 L 275.56 165.02 C 275.56 172.74 268.97 177.13 262.09 177.13 Z M 321.13 195.00 L 351.55 195.00 L 351.55 170.93 L 356.11 165.19 L 373.35 195.00 L 408.01 195.00 L 378.51 147.46 L 407.26 110.38 L 373.06 110.38 L 352.62 138.84 L 351.55 138.84 L 351.55 82.24 L 321.13 82.24 L 321.13 195.00 Z M 455.70 196.53 C 477.25 196.53 491.49 186.98 495.81 171.77 L 469.02 167.83 C 467.20 172.52 462.50 175.16 456.30 175.16 C 447.90 175.16 442.31 170.18 441.92 159.74 L 497.02 159.74 L 497.02 152.76 C 497.02 125.83 480.52 109.31 454.95 109.31 C 428.74 109.31 412.11 126.73 412.11 152.91 C 412.11 180.32 428.53 196.53 455.70 196.53 Z M 442.14 143.08 C 443.06 135.06 447.51 130.67 455.24 130.67 C 462.97 130.67 467.42 135.06 468.34 143.08 L 442.14 143.08 Z M 570.28 196.07 C 582.15 196.07 590.26 189.70 593.75 181.07 L 594.50 181.07 L 594.50 195.00 L 624.63 195.00 L 624.63 82.24 L 594.19 82.24 L 594.19 125.23 L 593.75 125.23 C 590.48 116.58 582.54 109.31 569.97 109.31 C 553.26 109.31 536.98 122.13 536.98 152.76 C 536.98 181.97 552.19 196.07 570.28 196.07 Z M 581.47 172.74 C 573.07 172.74 568.32 165.26 568.32 152.76 C 568.32 140.19 573.07 132.64 581.47 132.64 C 589.80 132.64 594.96 140.19 594.96 152.76 C 594.96 165.02 589.80 172.74 581.47 172.74 Z M 680.63 196.53 C 702.19 196.53 716.43 186.98 720.74 171.77 L 693.95 167.83 C 692.13 172.52 687.44 175.16 681.24 175.16 C 672.83 175.16 667.24 170.18 666.85 159.74 L 721.95 159.74 L 721.95 152.76 C 721.95 125.83 705.46 109.31 679.88 109.31 C 653.68 109.31 637.04 126.73 637.04 152.91 C 637.04 180.32 653.46 196.53 680.63 196.53 Z M 667.07 143.08 C 667.99 135.06 672.45 130.67 680.17 130.67 C 687.90 130.67 692.35 135.06 693.27 143.08 L 667.07 143.08 Z M 774.78 196.53 C 798.24 196.53 813.23 183.96 815.27 163.81 L 787.34 159.74 C 786.06 168.89 781.90 173.81 775.24 173.81 C 767.22 173.81 762.06 166.62 762.06 152.76 C 762.06 138.84 767.22 132.03 775.24 132.03 C 781.97 132.03 785.89 136.80 787.34 145.64 L 815.27 141.50 C 813.31 121.88 798.10 109.31 774.78 109.31 C 747.24 109.31 731.04 126.97 731.04 152.91 C 731.04 178.94 747.24 196.53 774.78 196.53 Z M 827.53 195.00 L 857.95 195.00 L 857.95 110.38 L 827.53 110.38 L 827.53 195.00 Z M 842.67 101.76 C 850.90 101.76 857.66 95.56 857.66 87.83 C 857.66 80.11 850.90 73.91 842.67 73.91 C 834.41 73.91 827.68 80.11 827.68 87.83 C 827.68 95.56 834.41 101.76 842.67 101.76 Z M 911.15 196.53 C 935.30 196.53 952.86 185.17 952.86 167.00 C 952.86 154.51 944.38 147.17 927.14 144.14 L 909.87 141.11 C 903.53 139.98 901.85 137.55 901.85 135.06 C 901.85 131.57 906.02 129.61 911.23 129.61 C 917.14 129.61 921.98 132.10 923.34 137.63 L 950.15 133.77 C 947.48 118.40 933.02 109.31 910.62 109.31 C 886.40 109.31 871.58 119.24 871.58 136.88 C 871.58 150.20 880.13 158.60 897.30 161.70 L 912.29 164.41 C 918.95 165.62 921.98 167.37 921.98 170.64 C 921.98 174.10 918.49 175.92 912.51 175.92 C 903.89 175.92 899.72 172.21 897.76 165.55 L 869.62 169.64 C 872.48 186.31 888.15 196.53 911.15 196.53 Z M 964.52 195.00 L 994.94 195.00 L 994.94 110.38 L 964.52 110.38 L 964.52 195.00 Z M 979.66 101.76 C 987.89 101.76 994.65 95.56 994.65 87.83 C 994.65 80.11 987.89 73.91 979.66 73.91 C 971.40 73.91 964.67 80.11 964.67 87.83 C 964.67 95.56 971.40 101.76 979.66 101.76 Z M 1051.17 196.53 C 1078.66 196.53 1094.84 178.94 1094.84 152.91 C 1094.84 126.97 1078.66 109.31 1051.17 109.31 C 1023.56 109.31 1007.36 126.97 1007.36 152.91 C 1007.36 178.94 1023.56 196.53 1051.17 196.53 Z M 1051.17 173.81 C 1043.15 173.81 1038.38 166.01 1038.38 152.76 C 1038.38 139.44 1043.15 132.03 1051.17 132.03 C 1059.04 132.03 1063.81 139.44 1063.81 152.76 C 1063.81 166.01 1059.04 173.81 1051.17 173.81 Z M 1137.68 147.46 C 1137.68 139.08 1142.45 133.99 1149.93 133.99 C 1157.59 133.99 1162.04 139.08 1162.04 147.46 L 1162.04 195.00 L 1192.49 195.00 L 1192.49 141.11 C 1192.49 122.63 1180.88 109.31 1162.96 109.31 C 1148.50 109.31 1140.49 117.96 1136.32 129.46 L 1135.79 110.38 L 1107.26 110.38 L 1107.26 195.00 L 1137.68 195.00 L 1137.68 147.46 Z M 1245.68 196.53 C 1269.82 196.53 1287.38 185.17 1287.38 167.00 C 1287.38 154.51 1278.90 147.17 1261.66 144.14 L 1244.39 141.11 C 1238.05 139.98 1236.38 137.55 1236.38 135.06 C 1236.38 131.57 1240.54 129.61 1245.75 129.61 C 1251.66 129.61 1256.50 132.10 1257.86 137.63 L 1284.67 133.77 C 1282.00 118.40 1267.55 109.31 1245.14 109.31 C 1220.92 109.31 1206.10 119.24 1206.10 136.88 C 1206.10 150.20 1214.65 158.60 1231.82 161.70 L 1246.81 164.41 C 1253.47 165.62 1256.50 167.37 1256.50 170.64 C 1256.50 174.10 1253.01 175.92 1247.03 175.92 C 1238.41 175.92 1234.24 172.21 1232.28 165.55 L 1204.14 169.64 C 1207.00 186.31 1222.67 196.53 1245.68 196.53 Z"/>
    <path d="M 128.75 391.36 C 157.28 391.36 174.45 379.03 174.45 356.70 C 174.45 339.60 164.09 327.49 139.19 322.19 L 129.96 320.23 C 119.28 317.95 114.83 314.85 114.83 309.47 C 114.83 304.48 118.99 300.85 128.44 300.85 C 138.37 300.85 143.04 305.16 143.57 312.50 L 172.95 312.50 C 172.81 290.39 155.76 275.71 128.44 275.71 C 101.65 275.71 82.88 290.17 82.88 311.58 C 82.88 329.24 95.06 339.14 114.97 343.38 L 126.33 345.80 C 138.80 348.44 143.28 351.64 143.28 356.70 C 143.28 362.29 138.05 366.24 128.29 366.24 C 116.50 366.24 109.60 360.72 109.06 350.33 L 80.00 350.33 C 80.17 378.64 99.30 391.36 128.75 391.36 Z M 227.14 391.53 C 248.70 391.53 262.94 381.98 267.25 366.77 L 240.46 362.83 C 238.64 367.52 233.95 370.16 227.75 370.16 C 219.34 370.16 213.75 365.18 213.36 354.74 L 268.46 354.74 L 268.46 347.76 C 268.46 320.83 251.97 304.31 226.39 304.31 C 200.19 304.31 183.55 321.73 183.55 347.91 C 183.55 375.32 199.97 391.53 227.14 391.53 Z M 213.58 338.07 C 214.50 330.06 218.96 325.68 226.68 325.68 C 234.41 325.68 238.86 330.06 239.78 338.07 L 213.58 338.07 Z M 330.08 305.38 L 315.55 305.38 L 315.55 285.25 L 285.10 285.25 L 285.10 305.38 L 274.37 305.38 L 274.37 327.49 L 285.10 327.49 L 285.10 365.64 C 285.10 382.52 294.79 391.28 313.80 391.28 C 319.25 391.28 325.38 390.75 332.33 388.86 L 328.70 367.14 C 327.56 367.52 323.10 368.13 321.29 368.13 C 317.27 368.13 315.55 366.39 315.55 362.83 L 315.55 327.49 L 330.08 327.49 L 330.08 305.38 Z M 391.99 305.38 L 377.45 305.38 L 377.45 285.25 L 347.01 285.25 L 347.01 305.38 L 336.28 305.38 L 336.28 327.49 L 347.01 327.49 L 347.01 365.64 C 347.01 382.52 356.70 391.28 375.71 391.28 C 381.16 391.28 387.29 390.75 394.24 388.86 L 390.61 367.14 C 389.47 367.52 385.01 368.13 383.19 368.13 C 379.17 368.13 377.45 366.39 377.45 362.83 L 377.45 327.49 L 391.99 327.49 L 391.99 305.38 Z M 434.81 277.24 L 404.39 277.24 L 404.39 390.00 L 434.81 390.00 L 434.81 277.24 Z M 490.82 391.53 C 512.38 391.53 526.62 381.98 530.93 366.77 L 504.14 362.83 C 502.33 367.52 497.63 370.16 491.43 370.16 C 483.02 370.16 477.43 365.18 477.04 354.74 L 532.14 354.74 L 532.14 347.76 C 532.14 320.83 515.65 304.31 490.07 304.31 C 463.87 304.31 447.23 321.73 447.23 347.91 C 447.23 375.32 463.65 391.53 490.82 391.53 Z M 477.26 338.07 C 478.18 330.06 482.64 325.68 490.36 325.68 C 498.09 325.68 502.54 330.06 503.46 338.07 L 477.26 338.07 Z M 605.41 391.07 C 617.27 391.07 625.39 384.70 628.88 376.07 L 629.63 376.07 L 629.63 390.00 L 659.75 390.00 L 659.75 277.24 L 629.31 277.24 L 629.31 320.23 L 628.88 320.23 C 625.61 311.58 617.66 304.31 605.09 304.31 C 588.38 304.31 572.11 317.13 572.11 347.76 C 572.11 376.97 587.32 391.07 605.41 391.07 Z M 616.60 367.74 C 608.19 367.74 603.45 360.26 603.45 347.76 C 603.45 335.19 608.19 327.64 616.60 327.64 C 624.93 327.64 630.09 335.19 630.09 347.76 C 630.09 360.02 624.93 367.74 616.60 367.74 Z M 715.75 391.53 C 737.31 391.53 751.55 381.98 755.86 366.77 L 729.07 362.83 C 727.26 367.52 722.56 370.16 716.36 370.16 C 707.96 370.16 702.36 365.18 701.97 354.74 L 757.07 354.74 L 757.07 347.76 C 757.07 320.83 740.58 304.31 715.00 304.31 C 688.80 304.31 672.16 321.73 672.16 347.91 C 672.16 375.32 688.58 391.53 715.75 391.53 Z M 702.19 338.07 C 703.11 330.06 707.57 325.68 715.29 325.68 C 723.02 325.68 727.48 330.06 728.40 338.07 L 702.19 338.07 Z M 823.53 391.07 C 841.60 391.07 856.83 376.97 856.83 347.76 C 856.83 317.13 840.56 304.31 823.82 304.31 C 811.25 304.31 803.31 311.58 800.07 320.23 L 799.61 320.23 L 799.61 277.24 L 769.19 277.24 L 769.19 390.00 L 799.32 390.00 L 799.32 376.07 L 800.07 376.07 C 803.55 384.70 811.64 391.07 823.53 391.07 Z M 812.32 367.74 C 803.99 367.74 798.85 360.02 798.85 347.76 C 798.85 335.19 803.99 327.64 812.32 327.64 C 820.72 327.64 825.50 335.19 825.50 347.76 C 825.50 360.26 820.72 367.74 812.32 367.74 Z M 892.85 391.36 C 903.82 391.36 912.08 387.58 917.22 378.04 L 917.82 378.04 L 917.82 390.00 L 946.28 390.00 L 946.28 332.02 C 946.28 316.42 930.85 304.31 906.78 304.31 C 883.02 304.31 870.06 315.91 867.71 330.06 L 895.13 332.77 C 896.10 327.64 900.58 325.21 906.32 325.21 C 912.16 325.21 915.86 327.71 915.86 332.02 L 915.86 332.34 C 915.86 337.25 910.49 338.75 896.34 339.75 C 878.86 341.03 865.29 348.15 865.29 366.68 C 865.29 383.49 876.58 391.36 892.85 391.36 Z M 902.69 372.13 C 897.55 372.13 893.92 369.63 893.92 364.86 C 893.92 360.55 896.95 357.23 904.04 356.09 C 908.81 355.34 912.91 354.35 916.15 353.07 L 916.15 360.02 C 916.15 367.74 909.56 372.13 902.69 372.13 Z M 1011.23 305.38 L 996.70 305.38 L 996.70 285.25 L 966.25 285.25 L 966.25 305.38 L 955.53 305.38 L 955.53 327.49 L 966.25 327.49 L 966.25 365.64 C 966.25 382.52 975.94 391.28 994.95 391.28 C 1000.40 391.28 1006.53 390.75 1013.48 388.86 L 1009.85 367.14 C 1008.71 367.52 1004.25 368.13 1002.44 368.13 C 998.42 368.13 996.70 366.39 996.70 362.83 L 996.70 327.49 L 1011.23 327.49 L 1011.23 305.38 Z M 1064.20 391.53 C 1085.76 391.53 1100.00 381.98 1104.31 366.77 L 1077.52 362.83 C 1075.71 367.52 1071.01 370.16 1064.81 370.16 C 1056.40 370.16 1050.81 365.18 1050.42 354.74 L 1105.52 354.74 L 1105.52 347.76 C 1105.52 320.83 1089.03 304.31 1063.45 304.31 C 1037.25 304.31 1020.61 321.73 1020.61 347.91 C 1020.61 375.32 1037.03 391.53 1064.20 391.53 Z M 1050.64 338.07 C 1051.56 330.06 1056.02 325.68 1063.74 325.68 C 1071.47 325.68 1075.92 330.06 1076.84 338.07 L 1050.64 338.07 Z M 1155.39 391.53 C 1179.54 391.53 1197.10 380.17 1197.10 362.00 C 1197.10 349.51 1188.62 342.17 1171.38 339.14 L 1154.11 336.11 C 1147.76 334.98 1146.09 332.55 1146.09 330.06 C 1146.09 326.57 1150.26 324.61 1155.46 324.61 C 1161.37 324.61 1166.22 327.10 1167.57 332.63 L 1194.38 328.77 C 1191.72 313.40 1177.26 304.31 1154.86 304.31 C 1130.64 304.31 1115.82 314.24 1115.82 331.88 C 1115.82 345.20 1124.37 353.60 1141.54 356.70 L 1156.53 359.41 C 1163.19 360.62 1166.22 362.37 1166.22 365.64 C 1166.22 369.10 1162.73 370.92 1156.75 370.92 C 1148.13 370.92 1143.96 367.21 1142.00 360.55 L 1113.86 364.64 C 1116.71 381.31 1132.38 391.53 1155.39 391.53 Z"/>
    <path d="M 80.00 585.00 L 133.14 585.00 C 157.57 585.00 172.64 571.61 172.64 553.06 C 172.64 537.17 160.99 526.80 146.46 526.27 L 146.46 525.06 C 159.53 522.56 168.25 512.88 168.25 500.38 C 168.25 483.28 154.62 472.24 128.90 472.24 L 80.00 472.24 L 80.00 585.00 Z M 110.59 560.64 L 110.59 536.71 L 125.41 536.71 C 134.64 536.71 140.40 541.19 140.40 549.13 C 140.40 556.62 135.17 560.64 124.95 560.64 L 110.59 560.64 Z M 110.59 517.79 L 110.59 496.29 L 123.59 496.29 C 131.17 496.29 136.77 500.16 136.77 507.04 C 136.77 514.01 131.17 517.79 123.13 517.79 L 110.59 517.79 Z M 213.52 586.07 C 227.95 586.07 235.99 577.42 240.16 565.92 L 240.67 585.00 L 269.22 585.00 L 269.22 500.38 L 238.78 500.38 L 238.78 547.92 C 238.78 556.33 234.01 561.39 226.52 561.39 C 218.87 561.39 214.41 556.33 214.41 547.92 L 214.41 500.38 L 184.00 500.38 L 184.00 554.27 C 184.00 572.75 195.57 586.07 213.52 586.07 Z M 284.65 585.00 L 315.07 585.00 L 315.07 500.38 L 284.65 500.38 L 284.65 585.00 Z M 299.79 491.76 C 308.03 491.76 314.78 485.56 314.78 477.83 C 314.78 470.11 308.03 463.91 299.79 463.91 C 291.53 463.91 284.80 470.11 284.80 477.83 C 284.80 485.56 291.53 491.76 299.79 491.76 Z M 360.94 472.24 L 330.52 472.24 L 330.52 585.00 L 360.94 585.00 L 360.94 472.24 Z M 406.66 586.07 C 418.52 586.07 426.64 579.70 430.12 571.07 L 430.88 571.07 L 430.88 585.00 L 461.00 585.00 L 461.00 472.24 L 430.56 472.24 L 430.56 515.23 L 430.12 515.23 C 426.85 506.58 418.91 499.31 406.34 499.31 C 389.63 499.31 373.36 512.13 373.36 542.76 C 373.36 571.97 388.57 586.07 406.66 586.07 Z M 417.85 562.74 C 409.44 562.74 404.69 555.26 404.69 542.76 C 404.69 530.19 409.44 522.64 417.85 522.64 C 426.18 522.64 431.34 530.19 431.34 542.76 C 431.34 555.02 426.18 562.74 417.85 562.74 Z M 561.66 586.07 C 579.73 586.07 594.96 571.97 594.96 542.76 C 594.96 512.13 578.69 499.31 561.95 499.31 C 549.38 499.31 541.44 506.58 538.19 515.23 L 537.73 515.23 L 537.73 472.24 L 507.32 472.24 L 507.32 585.00 L 537.44 585.00 L 537.44 571.07 L 538.19 571.07 C 541.68 579.70 549.77 586.07 561.66 586.07 Z M 550.45 562.74 C 542.12 562.74 536.98 555.02 536.98 542.76 C 536.98 530.19 542.12 522.64 550.45 522.64 C 558.85 522.64 563.62 530.19 563.62 542.76 C 563.62 555.26 558.85 562.74 550.45 562.74 Z M 607.37 585.00 L 637.79 585.00 L 637.79 540.95 C 637.79 531.26 644.38 524.91 653.38 524.91 C 656.48 524.91 661.55 525.35 664.57 526.41 L 664.57 500.52 C 662.15 499.77 659.51 499.31 656.87 499.31 C 647.86 499.31 640.82 504.62 637.79 516.58 L 636.89 516.58 L 636.89 500.38 L 607.37 500.38 L 607.37 585.00 Z M 698.19 586.36 C 709.16 586.36 717.42 582.58 722.55 573.04 L 723.16 573.04 L 723.16 585.00 L 751.62 585.00 L 751.62 527.02 C 751.62 511.42 736.19 499.31 712.12 499.31 C 688.36 499.31 675.40 510.91 673.05 525.06 L 700.47 527.77 C 701.43 522.64 705.92 520.21 711.66 520.21 C 717.49 520.21 721.20 522.71 721.20 527.02 L 721.20 527.34 C 721.20 532.25 715.82 533.75 701.68 534.75 C 684.19 536.03 670.63 543.15 670.63 561.68 C 670.63 578.49 681.91 586.36 698.19 586.36 Z M 708.02 567.13 C 702.89 567.13 699.26 564.63 699.26 559.86 C 699.26 555.55 702.28 552.23 709.38 551.09 C 714.15 550.34 718.24 549.35 721.49 548.07 L 721.49 555.02 C 721.49 562.74 714.90 567.13 708.02 567.13 Z M 807.77 586.53 C 831.24 586.53 846.23 573.96 848.27 553.81 L 820.34 549.74 C 819.06 558.89 814.89 563.81 808.23 563.81 C 800.22 563.81 795.06 556.62 795.06 542.76 C 795.06 528.84 800.22 522.03 808.23 522.03 C 814.97 522.03 818.89 526.80 820.34 535.64 L 848.27 531.50 C 846.31 511.88 831.10 499.31 807.77 499.31 C 780.24 499.31 764.03 516.97 764.03 542.91 C 764.03 568.94 780.24 586.53 807.77 586.53 Z M 860.53 585.00 L 890.95 585.00 L 890.95 560.93 L 895.50 555.19 L 912.75 585.00 L 947.40 585.00 L 917.91 537.46 L 946.65 500.38 L 912.46 500.38 L 892.02 528.84 L 890.95 528.84 L 890.95 472.24 L 860.53 472.24 L 860.53 585.00 Z M 995.10 586.53 C 1016.65 586.53 1030.89 576.98 1035.20 561.77 L 1008.42 557.83 C 1006.60 562.52 1001.90 565.16 995.70 565.16 C 987.30 565.16 981.70 560.18 981.32 549.74 L 1036.41 549.74 L 1036.41 542.76 C 1036.41 515.83 1019.92 499.31 994.35 499.31 C 968.14 499.31 951.50 516.73 951.50 542.91 C 951.50 570.32 967.92 586.53 995.10 586.53 Z M 981.53 533.08 C 982.45 525.06 986.91 520.67 994.64 520.67 C 1002.36 520.67 1006.82 525.06 1007.74 533.08 L 981.53 533.08 Z M 1098.03 500.38 L 1083.50 500.38 L 1083.50 480.25 L 1053.06 480.25 L 1053.06 500.38 L 1042.33 500.38 L 1042.33 522.49 L 1053.06 522.49 L 1053.06 560.64 C 1053.06 577.52 1062.75 586.28 1081.76 586.28 C 1087.21 586.28 1093.33 585.75 1100.28 583.86 L 1096.65 562.14 C 1095.51 562.52 1091.06 563.13 1089.24 563.13 C 1085.22 563.13 1083.50 561.39 1083.50 557.83 L 1083.50 522.49 L 1098.03 522.49 L 1098.03 500.38 Z M 1148.20 586.53 C 1172.34 586.53 1189.90 575.17 1189.90 557.00 C 1189.90 544.51 1181.42 537.17 1164.18 534.14 L 1146.91 531.11 C 1140.57 529.98 1138.90 527.55 1138.90 525.06 C 1138.90 521.57 1143.06 519.61 1148.27 519.61 C 1154.18 519.61 1159.02 522.10 1160.38 527.63 L 1187.19 523.77 C 1184.52 508.40 1170.06 499.31 1147.66 499.31 C 1123.44 499.31 1108.62 509.24 1108.62 526.88 C 1108.62 540.20 1117.17 548.60 1134.34 551.70 L 1149.33 554.41 C 1155.99 555.62 1159.02 557.37 1159.02 560.64 C 1159.02 564.10 1155.53 565.92 1149.55 565.92 C 1140.93 565.92 1136.76 562.21 1134.80 555.55 L 1106.66 559.64 C 1109.52 576.31 1125.19 586.53 1148.20 586.53 Z"/>
  </g>
  <g fill="none" stroke="#F7F3EC" stroke-width="26" stroke-linecap="square" stroke-linejoin="miter">
    <path d="M 1315.38 181.00 H 1600.00 V 376.00 H 1225.10"/>
    <path d="M 1600.00 278.50 H 1860.00 V 571.00 H 1217.90"/>
    <path d="M 1860.00 424.75 H 2220.00"/>
  </g>
</svg>